<!--?xml version="1.0" encoding="utf-8"?-->
<!-- Generator: Adobe Illustrator 18.0.0, SVG Export Plug-In . SVG Version: 6.00 Build 0)  -->

<svg version="1.1" id="_x32_" xmlns="http://www.w3.org/2000/svg" xmlns:xlink="http://www.w3.org/1999/xlink" x="0px" y="0px" viewBox="0 0 512 512" style="width: 32px; height: 32px; opacity: 1;" xml:space="preserve">
<style type="text/css">
	.st0{fill:#e6913f;}
</style>
<g>
	<path class="st0" d="M0,47.702v416.596h512V47.702H0z M34.984,429.315V82.68h442.039v346.635H34.984z" style="fill: #e6913f;"></path>
	<path class="st0" d="M55.652,408.644h400.695V103.352H55.652V408.644z M199.63,211.924c-17.822,0-32.322-14.501-32.322-32.323
		c0-17.822,14.499-32.322,32.322-32.322c17.822,0,32.323,14.499,32.323,32.322C231.953,197.422,217.452,211.924,199.63,211.924z
		 M169.579,280.637c3.284-4.891,8.762-7.812,14.652-7.812c5.893,0,11.37,2.921,14.654,7.812c3.874,5.776,10.34,9.224,17.294,9.224
		c6.894,0,13.329-3.402,17.211-9.101l39.476-57.946c3.338-4.899,8.655-7.71,14.585-7.71c5.928,0,11.244,2.81,14.583,7.71
		L405.93,375.317H106.046L169.579,280.637z" style="fill: #e6913f;"></path>
</g>
</svg>
